<?xml version="1.0" encoding="utf-8"?>
<!-- Generator: Adobe Illustrator 25.0.0, SVG Export Plug-In . SVG Version: 6.00 Build 0)  -->
<svg version="1.1" id="Layer_1" xmlns="http://www.w3.org/2000/svg" xmlns:xlink="http://www.w3.org/1999/xlink" x="0px" y="0px"
	 viewBox="0 0 450 180" style="enable-background:new 0 0 450 180;" xml:space="preserve">
<style type="text/css">
	.st0{fill:#202429;}
	.st1{fill:#EE223B;}
</style>
<g>
	<g>
		<g>
			<path class="st0" d="M112.28,127.53H81.99l9.35-34.99h29.41c5.63,0,7.05,2.68,5.69,7.82l-0.82,3.17
				c-0.55,2.02-2.24,4.32-3.55,4.87c1.15,0.88,2.19,2.19,1.42,5.08l-1.7,6.29C120.53,124.47,117.58,127.53,112.28,127.53z
				 M109.05,114.9c0.44-1.64-0.05-2.73-2.13-2.73h-6.83l-2.57,9.57h6.72c2.08,0,3.17-0.77,3.66-2.62
				C108.61,116.54,109.05,114.9,109.05,114.9z M110.86,98.34h-7.05l-2.19,8.26h7c1.31,0,2.3-0.71,2.68-2.19c0,0,0.33-1.09,1.09-3.99
				C112.77,98.94,112.28,98.34,110.86,98.34z"/>
			<path class="st0" d="M132.56,127.53c-6.07,0-7.6-3.61-6.07-9.35l2.79-10.44c0.93-3.55,0.93-3.39,1.58-5.91h12.9l-4.97,18.53
				c-0.44,1.59,0,2.13,1.59,2.13h4.7c1.59,0,2.24-0.55,2.68-2.13l3.39-12.63c0.93-3.55,0.82-3.01,1.59-5.91h12.9l-5.3,19.79
				c-0.93,3.55-1.09,3.99-1.59,5.9H132.56z"/>
			<path class="st0" d="M187.13,137.26h-13.78l1.37-5.03c3.12,0,5.85,0,5.85,0c2.19,0,2.79-0.66,3.12-1.86l0.77-2.84h-13.01
				c-6.07,0-7.6-3.61-6.07-9.35l2.79-10.44c0.93-3.55,0.93-3.5,1.58-5.91h12.9l-4.98,18.53c-0.44,1.59,0,2.13,1.58,2.13h4.76
				c1.2,0,1.53-0.16,2.08-2.19l3.66-13.61c0.87-3.23,0.55-1.97,1.31-4.87h12.9l-7.49,27.88
				C195.16,134.58,191.83,137.26,187.13,137.26z"/>
			<path class="st0" d="M209.38,127.53c-6.07,0-7.6-3.61-6.07-9.35l6.83-25.64h13.56l-7.16,26.9c-0.44,1.59-0.05,2.13,1.53,2.13
				h7.49l7.76-29.03h14.21l-9.35,34.99H209.38z"/>
			<path class="st0" d="M264,106.87c-1.58,0-2.24,0.55-2.68,2.13l-3.39,12.63c-0.93,3.55-0.88,3.23-1.59,5.9h-13.89
				c0.71-2.57,0.66-2.35,1.59-5.9l2.79-10.44c1.53-5.74,5.03-9.35,11.1-9.35h14.16c-0.33,1.26-0.98,3.66-1.37,5.03H264z"/>
			<path class="st1" d="M298.33,116.92h-13.5l-2.84,10.61h-13.94l9.35-34.99h28.32c3.33,0,8.53,1.42,6.62,8.53l-1.86,6.89
				C308.61,114.9,302.93,116.92,298.33,116.92z M298.44,101.29c0.66-2.46,0.27-3.01-1.64-3.01h-7l-3.39,12.63h6.62
				c1.91,0,2.95-0.55,3.61-3.01L298.44,101.29z"/>
			<path class="st1" d="M316.49,127.53c-5.79,0-6.78-2.41-5.36-7.76l0.49-1.69c1.42-5.36,3.72-7.76,9.51-7.76h13.94
				c0.16-0.77,0.16-0.6,0.44-1.8c0.33-1.15,0.05-1.64-1.75-1.64h-13.45l1.37-5.03h19.9c6.18,0,7.98,2.52,6.07,9.57l-3.01,11.32
				c-0.71,2.62-0.77,2.9-1.31,4.81H316.49z M333.71,115.34h-5.74c-1.97,0-2.84,0.33-3.33,2.19l-0.71,2.79
				c-0.55,1.86,0.16,2.19,2.13,2.19h3.01c2.46,0,2.68,0.16,3.55-3.12L333.71,115.34z"/>
			<path class="st1" d="M368.7,106.87c-1.58,0-2.24,0.55-2.68,2.13l-3.39,12.63c-0.93,3.55-0.88,3.23-1.59,5.9h-13.89
				c0.71-2.57,0.66-2.35,1.59-5.9l2.79-10.44c1.53-5.74,5.03-9.35,11.1-9.35h14.16c-0.33,1.26-0.98,3.66-1.37,5.03H368.7z"/>
			<path class="st1" d="M380.84,127.53c-4.1,0-7.22-1.64-5.52-8.04l6.23-23.24h12.9l-1.48,5.58h8.09l-1.37,5.03h-8.09L388,120.42
				c-0.44,1.64-0.27,2.08,2.02,2.08h4.54c2.52,0-0.44,0,1.7,0l-1.37,5.03H380.84z"/>
			<path class="st1" d="M421.3,106.87c-1.31,0-1.64,0.05-2.24,0.77c-0.66,0.71-0.49,1.48-0.16,2.13l3.61,7.93
				c0.49,1.04,1.91,3.94-0.38,7.16c-1.53,2.13-3.39,2.68-5.69,2.68h-18.32l1.37-5.03c1.09,0,5.85,0,5.85,0
				c0.93,0,1.7-0.33,2.13-0.87c0.55-0.6,0.71-1.42,0.33-2.24l-3.83-8.2c-0.93-2.13-0.77-4.76,1.04-6.89
				c1.75-2.08,3.61-2.46,5.96-2.46h17.39l-1.37,5.03C425.46,106.87,421.3,106.87,421.3,106.87z"/>
		</g>
	</g>
	<g>
		<path class="st1" d="M270.3,91.14l-102-8.2c-0.06-1.21-0.32-2.3-0.84-3c-0.32-0.43-1.21-0.56-1.87-0.61
			c-3.12-0.2-4.48-1.24-4.33-4.21c0.08-1.47,1.22-2.93,1.77-4.43c0.34-0.92,0.84-2.02,0.74-2.85c-3,4.19-6.15,8.6-9.26,12.96
			c2.14,3.03,3.89,6.39,5.15,10.07L270.3,91.14z"/>
		<path class="st1" d="M122.33,63.99c6.44,0.21,12.47,1.76,17.78,4.43c4.62-5.58,9.37-11.34,13.74-16.67
			c-0.03-0.08-0.06-0.17-0.11-0.24c-1.31-1.91-3.21-3.41-4.95-5.16c-1.07,0.94-1.88,1.62-2.67,2.34c-2.75,2.54-2.8,2.6-5.49,0.48
			c-0.62-0.49-0.97-1.49-1.09-2.33c-0.25-1.78-0.2-3.61-0.41-5.4c-0.07-0.62-0.39-1.48-0.87-1.69c-2.13-0.94-4.34-2.34-6.55-2.21
			c-1.1,0.06-2.24,3.04-3.35,4.71c-0.23,0.34-0.32,0.78-0.59,1.07c-0.31,0.32-0.75,0.69-1.15,0.75c-2.59,0.39-4.38-0.65-5.26-2.96
			c-2.44-6.38-2.44-6.38-9.6-5.63c-0.08,0.01-0.19-0.02-0.24,0.02c-0.67,0.54-1.72,1-1.94,1.67c-0.64,1.9-1.15,3.89-1.33,5.85
			c-0.27,2.91-2.78,2.22-4.31,3.09c-1.51,0.86-2.16-0.11-2.94-0.99c-5.17-5.85-5.17-5.81-12.66-1.68c-1.39,0.77-1.87,1.62-1.64,3.08
			c0.35,2.24,0.56,4.5,0.76,6.77c0.05,0.57-0.01,1.32-0.34,1.76c-2.31,3.06-4.53,3.68-7.81,2.33c4.54,5.5,9.17,11.1,13.44,16.22
			C101.27,67.22,111.73,63.65,122.33,63.99z"/>
		<path class="st1" d="M143.58,141.78c-0.04,0-0.43,0.05-0.43,0.05c-0.88,0.13-1.72,0.53-2.64,1.14
			c-17.05,11.31-39.02,10.36-53.28-2.2c-14.32-12.61-17.66-33.93-8.08-51.52c0.07-0.12,0.14-0.24,0.21-0.36
			c-3.14-4.45-6.58-9.29-10.05-14.15c-0.26,0.97-0.75,1.96-1.59,3.01c-0.93,1.16-1.6,1.85-3.1,1.77c-2.15-0.12-4.33,0.02-6.49-0.03
			c-1.4-0.03-2.24,0.49-2.74,1.88c-0.96,2.66-1.99,5.31-3.13,7.92c-0.74,1.7-0.41,2.81,1.03,3.82c1.77,1.23,3.43,2.62,5.05,4.05
			c0.5,0.44,0.99,1.23,0.95,1.86c-0.23,3.9-1.24,7.38-6.06,8.21c-0.08,0.01-0.15,0.06-0.23,0.1c-6.06,2.65-4.96,1.32-5.09,7.41
			c-0.16,7.17-0.13,7.27,6.86,8.71c2.27,0.46,3.08,1.43,3.55,3.66c0.57,2.72,0.18,4.66-2.29,6.35c-1.01,0.69-1.73,1.8-2.72,2.51
			c-2.23,1.59-2.56,3.29-1.36,5.51c1.16,2.15,1.43,5.53,3.2,6.41c1.88,0.94,5.06-0.43,7.68-0.78c0.71-0.1,1.79-0.47,2.06-0.16
			c1.1,1.26,2.15,2.65,2.82,4.18c0.27,0.61-0.4,1.74-0.78,2.58c-1.08,2.35-3.36,4.9-3.05,6.92c0.31,2.03,3.16,3.51,4.9,5.23
			c0.05,0.05,0.11,0.14,0.17,0.15c0.92,0.09,1.99,0.52,2.72,0.17c2.07-0.99,4.01-2.29,5.98-3.5c2.19-1.36,3.14,0.75,4.55,1.39
			c0.53,0.24,0.79,1.51,0.71,2.29c-0.19,1.81-0.71,3.61-0.98,5.42c-0.09,0.56,0.01,1.55,0.3,1.64c2.45,0.81,4.94,1.52,7.47,2.09
			c0.37,0.08,1.08-0.64,1.51-1.1c1.36-1.44,2.75-2.86,3.97-4.41c1.6-2.03,3.46-0.9,5.13-0.77c0.52,0.04,1,1.45,1.18,2.31
			c0.34,1.57,0.44,3.21,0.63,4.73c5.16,0.24,9.6-0.35,11.18-6.24c0.81-3.02,3.48-3.01,5.86-3.71c0.73,1.34,1.32,2.7,2.18,3.86
			c0.36,0.48,1.43,0.89,1.96,0.69c3.93-1.54,7.53-3.46,7.39-8.42c0-0.15,0.1-0.31,0.11-0.47c0.19-2.46,2.36-3.28,4.07-4.18
			c0.57-0.3,1.85,0.98,2.87,1.38c0.75,0.3,1.98,0.78,2.35,0.46c2.71-2.36,5.7-4.47,5.48-8.46l124.74-9.88
			C270.3,141.31,152.37,141.41,143.58,141.78z"/>
	</g>
	<g>
		<g>
			
				<rect x="22.24" y="16.68" transform="matrix(0.7967 -0.6044 0.6044 0.7967 -3.1437 26.4545)" class="st0" width="31.02" height="2.43"/>
			<path class="st0" d="M46.59,3.89c-0.05-0.06-0.12-0.25-0.18-0.2L21.66,22.47c-0.06,0.05,0.17,0.11,0.22,0.17l1.68,2.21L48.27,6.1
				L46.59,3.89z"/>
			<path class="st0" d="M51.52,28.86c0.06-0.95-0.08-1.87-0.5-2.76c-0.01-0.03-0.03-0.06-0.04-0.09c3.6-1.57,8.64-0.39,10.8-1.28
				l0.47-0.18l-8.11-10.69L29.44,32.6l8.11,10.69l0.27-0.37c1.45-1.86,1.6-7.06,4.15-10.09c0.73,0.63,1.59,1.07,2.5,1.28l0.09,0.12
				c9.81,14.01,31.87,44.42,43.47,61.18l1.32-4.93h13.25C90.4,76.41,63.37,43.3,51.61,28.97L51.52,28.86z M47.29,30.5
				c-1.13,0.86-2.74,0.64-3.6-0.49c-0.86-1.13-0.64-2.74,0.49-3.6c1.13-0.86,2.74-0.64,3.6,0.49C48.64,28.03,48.42,29.65,47.29,30.5
				z"/>
			
				<rect x="24.63" y="20.14" transform="matrix(0.7967 -0.6044 0.6044 0.7967 -4.5616 28.539)" class="st0" width="31.02" height="1.82"/>
			<path class="st0" d="M163.47,27.94l0.47,0.18c2.16,0.89,7.2-0.29,10.8,1.28c-0.01,0.03-0.03,0.05-0.04,0.09
				c-0.42,0.89-0.56,1.81-0.5,2.76c-11.15,13.59-36.08,44.14-49.04,59.26c1,0.49,1.84,1.15,2.5,2.01c1.17,1.52,1.63,3.43,1.42,5.8
				h8.25c11.47-16.59,34.01-47.61,43.96-61.82c0.89-0.21,1.74-0.64,2.46-1.26c2.55,3.03,2.7,8.23,4.15,10.09l0.27,0.37L196.3,36
				l-24.71-18.75L163.47,27.94z M177.95,30.3c0.86-1.13,2.47-1.35,3.6-0.49c1.13,0.86,1.35,2.47,0.49,3.6
				c-0.86,1.13-2.47,1.35-3.6,0.49C177.31,33.04,177.09,31.43,177.95,30.3z"/>
			<path class="st0" d="M179.32,7.09c-0.06-0.05-0.13,0.14-0.18,0.2l-1.68,2.21l24.71,18.75l1.68-2.21
				c0.05-0.06,0.28-0.12,0.22-0.17L179.32,7.09z"/>
			
				<rect x="184.68" y="8.93" transform="matrix(0.6044 -0.7967 0.7967 0.6044 53.9488 157.5282)" class="st0" width="1.82" height="31.02"/>
			
				<rect x="186.77" y="5.78" transform="matrix(0.6044 -0.7967 0.7967 0.6044 57.403 158.1853)" class="st0" width="2.43" height="31.02"/>
		</g>
	</g>
</g>
</svg>
